/* XPM */
static char *_609321097718[] = {
/* columns rows colors chars-per-pixel */
"64 64 66 1 ",
"  c #5F5E5A",
". c #62615D",
"X c #656662",
"o c #686763",
"O c #676863",
"+ c #6A6B66",
"@ c #6E6E6B",
"# c #706F6B",
"$ c #6F716C",
"% c #72726E",
"& c #767673",
"* c #787772",
"= c #777874",
"- c #797976",
"; c #7C7D7A",
": c #807F7A",
"> c #7F807B",
", c #82827E",
"< c #848582",
"1 c #888783",
"2 c #878884",
"3 c #898A86",
"4 c #858688",
"5 c #878A89",
"6 c #8C8D8A",
"7 c #8F908D",
"8 c #91928E",
"9 c #8D8F91",
"0 c #8E9191",
"q c #949593",
"w c #969896",
"e c #999A95",
"r c #969799",
"t c #969A9A",
"y c #9B9D9C",
"u c #9EA09E",
"i c #A0A19E",
"p c #9B9FA0",
"a c #9EA2A2",
"s c #A2A4A3",
"d c #A8A7A5",
"f c #A6A8A6",
"g c #A9AAA6",
"h c #A3A6A8",
"j c #A5A9AA",
"k c #ADADAB",
"l c #AEB0AE",
"z c #B0B1AE",
"x c #AFAFB1",
"c c #AFB1B0",
"v c #B4B4B2",
"b c #B8B7B5",
"n c #B6B8B6",
"m c #B9B9B6",
"M c #B6B7B9",
"N c #B6B9BA",
"B c #BBBBBA",
"V c #BEC0BD",
"C c #C1C2BE",
"Z c #BEBFC1",
"A c #C2C3C3",
"S c #C6C8C7",
"D c #C8C8C6",
"F c #C5C6C8",
"G c #CDCDCC",
"H c #CECFD1",
/* pixels */
"BuggvksddvvmBxddgggvVDglgglljkkjjkxxjkkcjcHcZccccnjnVVcNNjcZNNcH",
"u+--,-@&@,4q1:--,,=,ql$>*-&&&&%%%&---&&&&;Z49499p559ttpt559ppa9V",
"y&66,:,,,446461<3,;,7z*><-;>;;;--;;;;;--;4Z9p5th5>>0aahatajpaarN",
"u@,244,496161<<;,3*,qz%--==;-;;;--&-;---;;Zra9tau>5aaapaaaat5atn",
"s&,<:,:<7qq346<;,3169k&;---;;;-;;;=;;--;=4Zthpha00aapaht737a>auZ",
"y&44344:<2,7q1:::3q86k@,;;;>;-;-;;=;-;;;=4Z5ppphuaajaajatq>q95uA",
"i@,4864,>1>;<;,;*,,16k#:;;>>;;;-;;&&;>;;;4Z9hpptuaatajttw03775tZ",
"i&45,:<,<<,;2;;<,-:*4k%;;;;;----;-;;;;;;&&Z9php40tu55t00037==utZ",
"y&5q7>165<5266<<,3,=6k&;;;;;;;;&&;-&;4&4&4Z4hahhap666yjht7<%7grF",
"y&46q<6365q7765,>8,>qz%;;;;--&-;--;-;;&;;4Zraphhhhpsywhjqqw66<5S",
"i&6t1&;6qq62-;66,=;-6z#;;;-----;;;;-;;;;&4xrhhapaspp,0f077y76;;B",
"u-r6;;;8662<>;623,><6z%-;;----&---;-;;;;&;Z9jhhprqhp6aa77qauq;$n",
"y&r1-22,><,>-6,>,1=-4Z&;&;;&;--;&;;&;4;;;4Z9hp991ehaajt32ww2-,-B",
"i;:;,;682<3>-,>><1;>9j@;;&;&&&;>&;;&&&;&;;Zrpp99qhahjjuq7w2>>>6C",
"a;<-=-,777,,>>-,4---4x@;&;&;-&--;;&;&&;;&;Zrjpthaayut5at6rqy7&<A",
"s-1:-,736>,3,6,,44;;rx&;;;&&----;&&;;&&;&4Z9xp9p507fy2655aau-;:C",
"s-4<&;76,,,3,82;<q726k&-=---=-----&---&-&-briqriq5tjs661ruyq&,;A",
"u&<,&@-<,,,3>8<><;7<qk%;**--&-==&&&--;&-&;v9prrs7<uuy6qtyyp2-,>V",
"s<6<,,--,,63,72<2;--5x@;**=*-===-&&&---&&;M5qiirwuytiq651662,>tA",
"g-5;-,>;,,,,,32-&-<;qx@-**=*&-&&&&&&&-&-&,M<rpr4<30wyyyt7<16,7yA",
"s&13<;;-,,,,,,,,;>73rv&;>**>*>*>&&&;:&-;;;M6r44457aaarppr<<623<B",
"DkvvbvvvVCzbzzzVvnvvNGxvlCvvzvzVZxxxzbBvvMHxxxxxnccccccxxvkvvvkH",
"u-,-;;,3,,,,8,e,321,ql1y8,8,,88,1<,46q311rM#-&&&=&=&===----&&-&B",
"u-,>,>>,,,,,,,,,3<,,qv3ye,,8e,,,664,66::64v&---&-=-&-;;;;----;-B",
"s&--,,,,,,,,,,>,237>3z,77q8e,,,e3:,1333,11b&:&&-;&--&;;;---&-;-Z",
"s*-,,,8,,,,,,,,,31,*7l2e788e88,,,:3eq88q69b%:&-;&&;&;;;--&&--;&Z",
"i;1,,,,,,,,,>>e,>>,,8n33,u73e,,,e8838e684rZ&&:&&;&--&--;;-&-&-&Z",
"i,1,,,,,,,,,,,,,2,,>8z=68,67,,,eqqqqeq869rZ%&&&&&;--&;-;------&Z",
"i%8,,,i8,,,,,,,88>,>qzO=>,eee>,,6e88q88e9rZ@;&&&;;&;-;;--&----&Z",
"i*,,,,,,,e7,,,,,2,>>8l.=>8eie,eie8683,eq49Z+;;&&&&&;----&--&--&Z",
"i%,*7,,,,,,,,>,,>,>=7lO>8e8,,ee8,,8e388,49Z&&&;&;&;&--&-;&&---&Z",
"i%>,,,,,,,,,>>*,3,,*7l+,,e,,e888,883,3,:&&M&&&&;&;&&---&-;-&;&;F",
"g,,ee,8,,,,,,,,,>>3,,l#,>%$,8eeqe88e,,,,-3n%&*--&&--;;&&;&&;&;&Z",
"g,,,e,e,*,,,3,,->>7,8v..O+>88ee8e,ei8,,,,3v%=*--&-&-&&&&&;&;;&@Z",
"g,,,,,,,,,,,,>:,>78,8l$,,+%,eee8,ee,,,,,-3b@--&&-----;&&&;&;&&&Z",
"g,,ee,,,8>,8,,,,,83>ql*,*+.O88,3e8,,,,,:;,b&==&-&&&--&&&&&&&&&@Z",
"g>,,e,,e3,,,,::,,,8,8z.*>+++,88ei,,,e,:#:1b%--**---&&&&&&-&-&&&Z",
"g,,,,,,,,77,,,,,,,788z,,%O+#%3,,,,i,,,,,,6m&-*--&&--&-&&&&&&&&&Z",
"i>e,,,,,,,e,,8q6,,7>il+,+##*,,,,,,,,,,,,<6N%-----&--&&&&&&-&&&&Z",
"u>8,ee,,,,,e6336euu7el+##***>,>>,,,,,,i,66B%-&==-&&&&&-;&&&&&&%Z",
"i878q2231<<:6114,,8<qz+@$+$$>>>,,,,,>>78,8V$**--&--****:;&&-&&&Z",
"i>26,>>26;<<;<4:3,,;qkX->.$+O%2,,,,,$$>>,,n$%#%%&&%%%%%%&&%%&&@x",
"DzmnbvvvvvbMbvbMnvvnNHxmvllczlnzbbCCvVzllVGnCvvmxxbzzzzzZZxxxxZF",
"g,2363636449<4663,,<rv<6q0w77fu2,ig,ueeeeen7,88,18,,,66,4;;4494Z",
"i-;;;;;1,;>-,2<<;,;;6z:87qq7>7t8,i,ii,,s,,z>21,#6,-,*+*:*%-:131B",
"i&6<<-;<<>>>,2563,;;6x1677202>8qe,ig8,,e82n3e6,,3,,,,,:#:-::11:B",
"i&461<<<>><1,><2<;--6v9r5w7w5706,,i,,ie8,>n>;>-,*:,,3333:##*16,M",
"s&<<<64;-1<;<222<3<-3z6qwu505066,,,,,8e8>>n=;-,,,,,,6,3,:::::<*b",
"d-<45<>;,44,4146212>7z*3376q756<8,,,,,,e,,m*:1,:,,*#,,,,,,,,,,,C",
"d;66<4,,,>64<,462,,28z*3,23775w8,,,,,8,,:1C1::1:,,,,,,,,,,,,,,,C",
"a=<<<,4<4,,><<:4222<7v&122336227,,,,:,,:,8C1,1::,,,,,,,,,,,,,,,m",
"a;<,><<>>,>4<:,<22<>8k&,2>2566568,,,,,,,,,C,,1g,e,,,,,,,,,,,,,,m",
"s;7<<;<>>><2:,<,,564qk&,,6775276,,,,e,,,8,C,g,,,,,,,ee,i,,,,,#,z",
"a>5,,<<>-><<<<;<;<56rz=,,6358787e,,,,,e,,,C,,,,ee,,,,,,,,#,,#,,b",
"f;;<<;;1,32<64<,<16,3x*,63772>>6e,**:,e,::m1,,g,,,,,,,,,,,#,,,+b",
"f;<<4,<43366611411<;1z;63>,5>736e,*,,,e,::m:,,,,,,,,,,,,,,,o:+,m",
"a-2;;<226357>,<5<1<>0x;6>>>2>75>,,,,,e,8,,D,,,,,,:**:**:,,,,*,,C",
"a;2<>;>>27>67,<5<;<>9c;4>3>2>>>5,,,,,,,,,gC,,,,,,,,,:#::#,,*,,,b",
"i-<,>;,>>227152<<,:-6x;12>>2>3>>,,8ie,,g,,z*,,,,::,,::,:,,,,,,,b",
"s=;,>,,,<<<54<<>;<,:6k,3>>3>>5>>,>,,e,,,,,b*,,g,,:******,#*,,,,C",
"s*;22,231<-161<><:,:6x-67,2,0>>5,,,,,,,,,,C*,,::,:::,,,****,,i,D",
"s>1<,<,65;,1<;><<<,;5x;q7=<73>55,e,,,,,,,,C*::**::1,,,,***,,,,,D",
"y@;;-,--;--&@&--;:,-<k=-@%,5>>>>8>>>>>,,*,b#*#*###*:*#*#####+,,b",
"FskkkgkdkkkkgskxjjkkxGkjjcccgsVsVVglllnCggDggggggggggggggggigggD"
};
