/* XPM */
static char *_609321109470[] = {
/* columns rows colors chars-per-pixel */
"64 64 42 1 ",
"  c #AAACAB",
". c #AFB1AE",
"X c #BBBEBC",
"o c #BCC0BF",
"O c #BEC2C1",
"+ c #C2C4C3",
"@ c #C6C8C6",
"# c #C8CAC7",
"$ c #C5C6C8",
"% c #C6C9C8",
"& c #CCCDCC",
"* c #D0CECF",
"= c #CCD0CF",
"- c #D1D1CF",
"; c #CDCFD1",
": c #CED2D2",
"> c #D3D5D4",
", c #D5D8D6",
"< c #D8D9D6",
"1 c #D6D7D9",
"2 c #D7D9D9",
"3 c #DBDCDB",
"4 c #DEE0DF",
"5 c #E1E1DF",
"6 c #DDDEE0",
"7 c #DEE2E2",
"8 c #E2E4E4",
"9 c #E6E8E7",
"0 c #E8EAE7",
"q c #E4E7E8",
"w c #E6EAEB",
"e c #EAEDED",
"r c #EEF0EF",
"t c #F0F1EF",
"y c #EDEFF0",
"u c #EEF1F1",
"i c #F2F4F4",
"p c #F6F8F7",
"a c #F9F9F7",
"s c #F5F6F8",
"d c #F7F8F9",
"f c #F9FAFA",
/* pixels */
"X>>:111;::;::::=***1***;1**>**-O@<->>-><,>>>>>->>>><4,444-,,444#",
"=uusiiyiiiussssssssssfssssssaif55faiptpppppiipppppppptrtt0tittp4",
"=uuuuuyuyusssyyssssyiyiiyyysyyi3<atte000errrttiipi0piuur0rttrtt4",
":iusiiiiuuussuyssyssyisssssiiif3<aptriyeewritptitp0ttturitttitp<",
":syyeuyiuuyiuusssssyyysssssiyyf33aiiiiierwrurttttittiiruittiitp4",
":syeyyyiuyyuyusssyyyysssssisitf5<atippiiruiuetittiitituttiittip>",
",duyuyuisuyyuiisssyttssssssiiyf3<atiiiiyiiirtiiitiitiiiiiitptti,",
":duuyeuuuuiusdsissstssyysssiiif3<aiiiisspittiiittrriittipiipttt4",
";ssyewsiusiuississssityssssiiif33ftappppiptriiiiiiiiiitiiiiiiip4",
"1sysyyyyuuiiissssssyiyysiyisiif<3fitippiippiiiiiiiiitirtrirtttt4",
";ssysyyyyyyuissssyysstysiyiiyyy*4fpiiippiiirtiippipiiiiiiirrttt4",
">syyseysuuyyyyyyysyysssiiiiiiii<3ftpiriiiiiiiipppiiiritirr00r0t4",
">iiiyyyissssyyyiisstiisiissisii<3aiiptrriiiiprritiptpitrrrr00rt4",
">yyyiyyyyyyuiiiywyywiisiisissti34apppppttiiitrriiiirtiirriirerr4",
":iqeiieyeyussiyyyyyyiewysissptf3<tpippttiiptriiiiitttitirrtr0tr4",
"1syyiiyyyiisssiiyyyiityyissspsf5<aiaiiiitpttttriiitiiiirr0tr0t04",
"1iuisiuiiiiiiysyssyssssyeiaipsf34pipirrrtiitittiipiiiittrwrrrrt4",
"1siuiiiiisiyyiyssyiyssssiitsspf34ptiiiriiiirtiiiiiiitiiur99uru0=",
",suuiiiiyyyyyyyssyyssssiiiittif3,itipiriiirtiitiitpiituree0tttr<",
",ieuiiiisyyyyyysssssisssiiiit0s<<priiirriiripipippiiiutieerti0t4",
"1syiyiyyysisyyyyisyssstsiissiyi><appprrrittiipiipiiiiiiuee0trrt4",
"1uyyyywyyyysssssssyisstssssiiya<4ptpiipiittitiiitpiiitttr0rrrr04",
"6iyyuuuuysysiyyssysisisssssiiii33fuiriiitrtiiiiirtipitttrerttrt4",
"6iiiuuuuyysyssissssyysssssiaiif38ferrippittitiipir0rtitrrtttr0t4",
";yyeyuyyuiisiyyyyssyssssssssiif<3ftyyisstprriiiiitr00ri00rturui4",
"1yeyyuiiiusiysyssssssssssysyiif<3fiyiisiiprriiiiiittiii00wrriti4",
"6syyiuuiiiusyiyssisissssssysiif13atipipeipi0ttiiiiiiiiiitrriiti5",
"1iiiiiiiiuisssyiysisssyyyysyiif13fiippiitiprttittiittiitrirriit5",
"6uususiuiiisisisssiyyyyyyyyyssf3<pisiittippiiiiitrtitttittptttp4",
"2uuuuuuyiiissyyyyystiyqyyytsits1<ptiiirirtirtit0rrirttitttt00tt4",
"7dssdsssssssssssysssssssssssssf35ssaaaafpippppiittiiappppiaattt5",
"O2:2666666616661111313666661136$+>>>>>>,,>,,,>-4,,:4>>>,,-->--&@",
"O616166661111668866615665565538**538555855858585555555355555543&",
"1didsssdsiytiissffsyiissssssfaf55aissaffspapaaititiiiitttiiiitt<",
":uyuyyyuiyyyiyyyssieyyyiiiiisis35aitiaiaiiitytyyttiyttter0ert00>",
":suuyyuuyiyyssssisyyiiiiiiiiiyf38apiisiiiiiyttytiyyyrtir00rtt0t>",
">suuuiyuiiyissssiiyisiiiiiittif18distiiiiiiiysyyyteeeir0eett00t<",
":iussuuuiyyssysysiiisssiiiiiyyf66siiiytiiiitiysittiyetiretit0rt<",
":sysuuisiyyisyssiiiiisiiiiityef37siisyeeeiyyyyiittit0tirtieeert<",
"4uuuiyiyiyiisyyyesiiissppiityyf36siiysieyiyyqyyittyyeeirtte000t<",
",iusuuuuyysysyyyysiiiissssiyywf<3pyiiiyyuuuiyeyiritite0tieee90t<",
",pyuuuuwyyyssyqyiiisiisiissiewi13pyuiuyiuuuiiiyyirreteerteee00t<",
">ieeuuuuyyyyyyeyiussiiiiissiets>2suuuyyyuuuiiiiurtitteerereerre>",
",suwwwuuyyissyysisiiiisyisiseys*3suiieeeuuuiiiuirittterr00err0r>",
"2uuuwwuuyyyyyqyyyiisssyyyisiyid:3iuusuyyiuuiuiiurtriteree00r000>",
"2uuuuwuuiyyyseyyyyyiiyisiiiiiis;2uuus7yeuuiiiyuiuirre0ere0rre00>",
":uuuuuuuiiyyyyeesyysiiiyiyiiiyi;>uuuu7eyuyuuiuuutteeeeee000e00t<",
"2uuuuuuuiyyyyqeyyiiiyisiiiiiiey:2iuuuuyyyyuuyyuuteeteyte00e0rrt<",
":uuuuuuuuuuwuwwuuuuyyyuuuyyuyyi;1syqyyqyyyyyyyyyttyeuyer0ereee0,",
"2uuwuuwuuuuwyyuuuyyyyuuyyyyyyyi11syyyyyyyyyyeyyyeeeweuew0e0rr00>",
":uwwwwwuuuuuwuuuyyywyyyuyyuiuys16ieqyyyyyyyyyyyyeeeeeyuww0rre0r<",
"2uuuuwwuwwuwwuuuyywwyyyuyyiyyys:1yywqwyyyyyyyyyeeeyeyeee0q8ee0e<",
"2uuwwwwwwuwuuuuuywwyuuuuuuuuuys:1iwwqqyyyyyyeyyeyyywywwye08000r,",
":uwuwwwwuwwwuuuuyywyuwyuuuyyyys;3syeyyywewywyyeyyyyqweweeeew00e<",
":uwwwwwuwwwwuwwuuuwwwywuyyyyywu;<iyyywyqwwwyyyyyyyewyyewee0000e<",
"2wwwwwwwwwwwywwyyyyywwuwyyyyyys;>iyywwyyywwywywwwweeqweeee00000>",
":uwwwwuwwuwwuwwwuuyyw7uwwuwyees;*iewyywyywweewwwwwyw77yy0099900>",
"2uwwwwwwwww7ww7wwwywwwwuwwuyyeu;;yeweeywewwewwewewywweew8999980-",
":wwww777wwwwwuwuuuuww7wwwyywewu=*tywywywwwyewewwqe7qye779990000>",
"2wwwwww77wwwwwuwuwwwwwwwwwwweeu=>ywywywww7ewwwwwwwwwe777889998e>",
"2wwww77wwuwwww7wuwwwewwwwwwwrwuO>iywwwwwwwwwqqweqweqw747277789e>",
"2www7wwwwwwww77wwwww7www7wwwwwyO:u7www7wweqewwwweqwqqq77777488w:",
"2wwwsuusuuuuwwuuuuusueyywyyyuupO>iwywwwwteeyttyeyyywrrrewwqwqwu,",
"O=OOOOOOOOOOOOOOOOOOOOOOOOOOOOO..OOOOOOO+++++OOOO++$+OO%OOOOO+#X"
};
